<?xml version="1.0" encoding="UTF-8"?>
<svg id="Layer_2" data-name="Layer 2" xmlns="http://www.w3.org/2000/svg" viewBox="0 0 500.47 209.27">
  <defs>
    <style>
      .cls-1 {
        fill: #e6e7e8;
        stroke-width: 0px;
      }

      .cls-2 {
        fill: #231f20;
        stroke: #fff;
        stroke-miterlimit: 10;
        stroke-width: 2.83px;
      }
    </style>
  </defs>
  <g id="Layer_1-2" data-name="Layer 1">
    <g>
      <polygon class="cls-1" points="280.05 9.92 112.78 209.27 75.78 209.27 243.06 9.92 280.05 9.92"/>
      <polygon class="cls-1" points="178.82 9.92 50.71 162.59 48.54 165.18 48.54 10.38 20.19 10.38 20.19 198.96 11.54 209.27 48.54 209.27 50.71 206.69 215.82 9.92 178.82 9.92"/>
      <polygon class="cls-1" points="463.46 9.92 335.31 162.64 335.31 20.62 344.29 9.92 307.29 9.92 140.01 209.27 177.02 209.27 306.96 54.41 306.96 196.43 296.18 209.27 333.2 209.27 335.31 206.75 464.44 52.86 464.44 93.86 464.44 95.42 436.09 95.42 436.09 123.77 464.44 123.77 464.44 208.8 492.78 208.8 492.78 123.77 492.78 93.86 492.78 19.08 500.47 9.92 463.46 9.92"/>
    </g>
    <g>
      <polygon class="cls-2" points="271.55 1.42 104.28 200.77 67.28 200.77 234.56 1.42 271.55 1.42"/>
      <polygon class="cls-2" points="170.32 1.42 42.21 154.09 40.04 156.67 40.04 1.88 11.69 1.88 11.69 190.45 3.04 200.77 40.04 200.77 42.21 198.19 207.32 1.42 170.32 1.42"/>
      <polygon class="cls-2" points="454.96 1.42 326.81 154.14 326.81 12.12 335.79 1.42 298.79 1.42 131.51 200.77 168.52 200.77 298.46 45.91 298.46 187.93 287.68 200.77 324.7 200.77 326.81 198.25 455.94 44.36 455.94 85.36 455.94 86.92 427.59 86.92 427.59 115.27 455.94 115.27 455.94 200.3 484.28 200.3 484.28 115.27 484.28 85.36 484.28 10.58 491.97 1.42 454.96 1.42"/>
    </g>
  </g>
</svg>