<svg width="939" height="572" viewBox="0 0 939 572" fill="none" xmlns="http://www.w3.org/2000/svg">
<path d="M939 376.553C939 491.456 846.732 571.447 714.373 571.447C590.646 571.447 495.309 501.814 495.309 411.273V407.053H554.391V410.314C554.391 468.053 626.709 515.434 714.757 515.434C811.436 515.434 879.918 457.886 879.918 376.361C879.918 296.753 812.012 253.401 717.634 253.401C639.369 253.401 572.231 285.436 563.407 326.87H504.325V11.5098H902.745V66.5635H563.407V289.848C585.85 240.357 656.826 206.788 741.037 206.788C854.981 206.788 939 268.747 939 376.553Z" fill="black"/>
<path d="M419.713 560.129H0V492.414C0 365.426 103.969 333.392 188.756 310.756L212.35 304.234C294.259 282.366 362.357 264.718 362.357 181.274C362.357 108.765 305.385 55.0537 215.228 55.0537C121.233 55.0537 61.7676 112.985 61.7676 202.759V213.501H2.49372V201.8C2.49372 78.0727 84.9784 0 218.105 0C346.052 0 421.439 72.3179 421.439 180.507C421.439 306.152 319.964 332.432 237.863 353.341L208.897 361.014C137.347 378.854 58.5066 402.832 58.5066 492.414V505.075H419.713V560.129Z" fill="black"/>
</svg>
